<svg width="676.0" height="457.88235294117646" viewBox="0 0 676.0 457.88235294117646" class="keymap" xmlns="http://www.w3.org/2000/svg" xmlns:xlink="http://www.w3.org/1999/xlink">
<defs>/* start glyphs */
<svg id="mdi:backspace-outline">
<svg xmlns="http://www.w3.org/2000/svg" id="mdi-backspace-outline" viewBox="0 0 24 24"><path d="M19,15.59L17.59,17L14,13.41L10.41,17L9,15.59L12.59,12L9,8.41L10.41,7L14,10.59L17.59,7L19,8.41L15.41,12L19,15.59M22,3A2,2 0 0,1 24,5V19A2,2 0 0,1 22,21H7C6.31,21 5.77,20.64 5.41,20.11L0,12L5.41,3.88C5.77,3.35 6.31,3 7,3H22M22,5H7L2.28,12L7,19H22V5Z" /></svg>
</svg>
<svg id="tabler:arrow-down">
<svg xmlns="http://www.w3.org/2000/svg" class="icon icon-tabler icon-tabler-arrow-down" viewBox="0 0 24 24" stroke-width="2" stroke="currentColor" fill="none" stroke-linecap="round" stroke-linejoin="round">
  <path stroke="none" d="M0 0h24v24H0z" fill="none"/>
  <path d="M12 5l0 14" />
  <path d="M18 13l-6 6" />
  <path d="M6 13l6 6" />
</svg>



</svg>
<svg id="mdi:cancel">
<svg xmlns="http://www.w3.org/2000/svg" id="mdi-cancel" viewBox="0 0 24 24"><path d="M12 2C17.5 2 22 6.5 22 12S17.5 22 12 22 2 17.5 2 12 6.5 2 12 2M12 4C10.1 4 8.4 4.6 7.1 5.7L18.3 16.9C19.3 15.5 20 13.8 20 12C20 7.6 16.4 4 12 4M16.9 18.3L5.7 7.1C4.6 8.4 4 10.1 4 12C4 16.4 7.6 20 12 20C13.9 20 15.6 19.4 16.9 18.3Z" /></svg>
</svg>
<svg id="tabler:space">
<svg xmlns="http://www.w3.org/2000/svg" class="icon icon-tabler icon-tabler-space" viewBox="0 0 24 24" stroke-width="2" stroke="currentColor" fill="none" stroke-linecap="round" stroke-linejoin="round">
  <path stroke="none" d="M0 0h24v24H0z" fill="none"/>
  <path d="M4 10v3a1 1 0 0 0 1 1h14a1 1 0 0 0 1 -1v-3" />
</svg>



</svg>
<svg id="mdi:web">
<svg xmlns="http://www.w3.org/2000/svg" id="mdi-web" viewBox="0 0 24 24"><path d="M16.36,14C16.44,13.34 16.5,12.68 16.5,12C16.5,11.32 16.44,10.66 16.36,10H19.74C19.9,10.64 20,11.31 20,12C20,12.69 19.9,13.36 19.74,14M14.59,19.56C15.19,18.45 15.65,17.25 15.97,16H18.92C17.96,17.65 16.43,18.93 14.59,19.56M14.34,14H9.66C9.56,13.34 9.5,12.68 9.5,12C9.5,11.32 9.56,10.65 9.66,10H14.34C14.43,10.65 14.5,11.32 14.5,12C14.5,12.68 14.43,13.34 14.34,14M12,19.96C11.17,18.76 10.5,17.43 10.09,16H13.91C13.5,17.43 12.83,18.76 12,19.96M8,8H5.08C6.03,6.34 7.57,5.06 9.4,4.44C8.8,5.55 8.35,6.75 8,8M5.08,16H8C8.35,17.25 8.8,18.45 9.4,19.56C7.57,18.93 6.03,17.65 5.08,16M4.26,14C4.1,13.36 4,12.69 4,12C4,11.31 4.1,10.64 4.26,10H7.64C7.56,10.66 7.5,11.32 7.5,12C7.5,12.68 7.56,13.34 7.64,14M12,4.03C12.83,5.23 13.5,6.57 13.91,8H10.09C10.5,6.57 11.17,5.23 12,4.03M18.92,8H15.97C15.65,6.75 15.19,5.55 14.59,4.44C16.43,5.07 17.96,6.34 18.92,8M12,2C6.47,2 2,6.5 2,12A10,10 0 0,0 12,22A10,10 0 0,0 22,12A10,10 0 0,0 12,2Z" /></svg>
</svg>
<svg id="tabler:arrow-up">
<svg xmlns="http://www.w3.org/2000/svg" class="icon icon-tabler icon-tabler-arrow-up" viewBox="0 0 24 24" stroke-width="2" stroke="currentColor" fill="none" stroke-linecap="round" stroke-linejoin="round">
  <path stroke="none" d="M0 0h24v24H0z" fill="none"/>
  <path d="M12 5l0 14" />
  <path d="M18 11l-6 -6" />
  <path d="M6 11l6 -6" />
</svg>



</svg>
<svg id="mdi:volume-high">
<svg xmlns="http://www.w3.org/2000/svg" id="mdi-volume-high" viewBox="0 0 24 24"><path d="M14,3.23V5.29C16.89,6.15 19,8.83 19,12C19,15.17 16.89,17.84 14,18.7V20.77C18,19.86 21,16.28 21,12C21,7.72 18,4.14 14,3.23M16.5,12C16.5,10.23 15.5,8.71 14,7.97V16C15.5,15.29 16.5,13.76 16.5,12M3,9V15H7L12,20V4L7,9H3Z" /></svg>
</svg>
<svg id="tabler:arrow-left">
<svg xmlns="http://www.w3.org/2000/svg" class="icon icon-tabler icon-tabler-arrow-left" viewBox="0 0 24 24" stroke-width="2" stroke="currentColor" fill="none" stroke-linecap="round" stroke-linejoin="round">
  <path stroke="none" d="M0 0h24v24H0z" fill="none"/>
  <path d="M5 12l14 0" />
  <path d="M5 12l6 6" />
  <path d="M5 12l6 -6" />
</svg>



</svg>
<svg id="mdi:apple-keyboard-command">
<svg xmlns="http://www.w3.org/2000/svg" id="mdi-apple-keyboard-command" viewBox="0 0 24 24"><path d="M6,2A4,4 0 0,1 10,6V8H14V6A4,4 0 0,1 18,2A4,4 0 0,1 22,6A4,4 0 0,1 18,10H16V14H18A4,4 0 0,1 22,18A4,4 0 0,1 18,22A4,4 0 0,1 14,18V16H10V18A4,4 0 0,1 6,22A4,4 0 0,1 2,18A4,4 0 0,1 6,14H8V10H6A4,4 0 0,1 2,6A4,4 0 0,1 6,2M16,18A2,2 0 0,0 18,20A2,2 0 0,0 20,18A2,2 0 0,0 18,16H16V18M14,10H10V14H14V10M6,16A2,2 0 0,0 4,18A2,2 0 0,0 6,20A2,2 0 0,0 8,18V16H6M8,6A2,2 0 0,0 6,4A2,2 0 0,0 4,6A2,2 0 0,0 6,8H8V6M18,8A2,2 0 0,0 20,6A2,2 0 0,0 18,4A2,2 0 0,0 16,6V8H18Z" /></svg>
</svg>
<svg id="mdi:apple-keyboard-shift">
<svg xmlns="http://www.w3.org/2000/svg" id="mdi-apple-keyboard-shift" viewBox="0 0 24 24"><path d="M15,18V12H17.17L12,6.83L6.83,12H9V18H15M12,4L22,14H17V20H7V14H2L12,4Z" /></svg>
</svg>
<svg id="tabler:arrow-right">
<svg xmlns="http://www.w3.org/2000/svg" class="icon icon-tabler icon-tabler-arrow-right" viewBox="0 0 24 24" stroke-width="2" stroke="currentColor" fill="none" stroke-linecap="round" stroke-linejoin="round">
  <path stroke="none" d="M0 0h24v24H0z" fill="none"/>
  <path d="M5 12l14 0" />
  <path d="M13 18l6 -6" />
  <path d="M13 6l6 6" />
</svg>



</svg>
<svg id="mdi:backspace-reverse-outline">
<svg xmlns="http://www.w3.org/2000/svg" id="mdi-backspace-reverse-outline" viewBox="0 0 24 24"><path d="M5,15.59L6.41,17L10,13.41L13.59,17L15,15.59L11.41,12L15,8.41L13.59,7L10,10.59L6.41,7L5,8.41L8.59,12L5,15.59M2,3A2,2 0 0,0 0,5V19A2,2 0 0,0 2,21H17C17.69,21 18.23,20.64 18.59,20.11L24,12L18.59,3.88C18.23,3.35 17.69,3 17,3H2M2,5H17L21.72,12L17,19H2V5Z" /></svg>
</svg>
<svg id="mdi:apple-keyboard-control">
<svg xmlns="http://www.w3.org/2000/svg" id="mdi-apple-keyboard-control" viewBox="0 0 24 24"><path d="M19.78,11.78L18.36,13.19L12,6.83L5.64,13.19L4.22,11.78L12,4L19.78,11.78Z" /></svg>
</svg>
<svg id="mdi:apple-keyboard-option">
<svg xmlns="http://www.w3.org/2000/svg" id="mdi-apple-keyboard-option" viewBox="0 0 24 24"><path d="M3,4H9.11L16.15,18H21V20H14.88L7.84,6H3V4M14,4H21V6H14V4Z" /></svg>
</svg>
<svg id="mdi:volume-medium">
<svg xmlns="http://www.w3.org/2000/svg" id="mdi-volume-medium" viewBox="0 0 24 24"><path d="M5,9V15H9L14,20V4L9,9M18.5,12C18.5,10.23 17.5,8.71 16,7.97V16C17.5,15.29 18.5,13.76 18.5,12Z" /></svg>
</svg>
</defs>/* end glyphs */
<style>/* inherit to force styles through use tags*/
svg path {
    fill: inherit;
}
/* font and background color specifications */
svg.keymap {
    font-family: SFMono-Regular,Consolas,Liberation Mono,Menlo,monospace;
    font-size: 12px;
    font-kerning: normal;
    text-rendering: optimizeLegibility;
    fill: #24292e;
}

/* default key styling */
rect.key {
    fill: #f6f8fa;
    stroke: #c9cccf;
    stroke-width: 1;
}

/* color accent for combo boxes */
rect.combo {
    fill: #cdf;
}

/* color accent for held keys */
rect.held, rect.combo.held {
    fill: #fdd;
}

/* color accent for ghost (optional) keys */
rect.ghost, rect.combo.ghost {
    fill: #ddd;
}

text {
    text-anchor: middle;
    dominant-baseline: middle;
}

/* styling for layer labels */
text.label {
    font-weight: bold;
    text-anchor: start;
    stroke: white;
    stroke-width: 2;
    paint-order: stroke;
}

/* styling for combo tap, and key hold/shifted label text */
text.combo, text.hold, text.shifted {
    font-size: 10px;
}

text.hold {
    text-anchor: middle;
    dominant-baseline: auto;
}

text.shifted {
    text-anchor: middle;
    dominant-baseline: hanging;
}

/* styling for hold/shifted label text in combo box */
text.combo.hold, text.combo.shifted {
    font-size: 7px;
}

/* lighter symbol for transparent keys */
text.trans {
    fill: #7b7e81;
}

/* styling for combo dendrons */
path.combo {
    stroke-width: 1;
    stroke: gray;
    fill: none;
}

/* Start Tabler Icons Cleanup */
/* cannot use height/width with glyphs */
.icon-tabler > path {
    fill: inherit;
    stroke: inherit;
}
/* hide tabler's default box */
.icon-tabler > path[stroke="none"][fill="none"] {
    visibility: collapse;
}
/* End Tabler Icons Cleanup */
</style>
<g class="layer-arrows_mirror">
<text x="30.0" y="28.0" class="label">arrows_mirror:</text>
<rect rx="6.0" ry="6.0" x="32.0" y="123.88235294117646" width="52.0" height="52.0" class="key"/>
<use href="#mdi:cancel" xlink:href="#mdi:cancel" x="51.0" y="142.88235294117646" height="14" width="14.0" class="tap glyph mdi:cancel"/>
<rect rx="6.0" ry="6.0" x="88.0" y="67.88235294117646" width="52.0" height="52.0" class="key"/>
<text x="114.0" y="93.88235294117646" class="tap">
<tspan x="114.0" dy="-0.6em">PAGE</tspan><tspan x="114.0" dy="1.2em">UP</tspan></text>
<rect rx="6.0" ry="6.0" x="144.0" y="58.0" width="52.0" height="52.0" class="key"/>
<use href="#tabler:arrow-up" xlink:href="#tabler:arrow-up" x="163.0" y="77.0" height="14" width="14.0" class="tap glyph tabler:arrow-up"/>
<rect rx="6.0" ry="6.0" x="200.0" y="77.76470588235294" width="52.0" height="52.0" class="key"/>
<text x="226.0" y="103.76470588235294" class="tap">HOME</text>
<rect rx="6.0" ry="6.0" x="256.0" y="87.64705882352942" width="52.0" height="52.0" class="key"/>
<use href="#mdi:cancel" xlink:href="#mdi:cancel" x="275.0" y="106.64705882352942" height="14" width="14.0" class="tap glyph mdi:cancel"/>
<rect rx="6.0" ry="6.0" x="32.0" y="179.8823529411765" width="52.0" height="52.0" class="key"/>
<use href="#mdi:cancel" xlink:href="#mdi:cancel" x="51.0" y="198.8823529411765" height="14" width="14.0" class="tap glyph mdi:cancel"/>
<rect rx="6.0" ry="6.0" x="88.0" y="123.88235294117646" width="52.0" height="52.0" class="key"/>
<use href="#tabler:arrow-left" xlink:href="#tabler:arrow-left" x="107.0" y="142.88235294117646" height="14" width="14.0" class="tap glyph tabler:arrow-left"/>
<rect rx="6.0" ry="6.0" x="144.0" y="114.0" width="52.0" height="52.0" class="key"/>
<use href="#tabler:arrow-down" xlink:href="#tabler:arrow-down" x="163.0" y="133.0" height="14" width="14.0" class="tap glyph tabler:arrow-down"/>
<rect rx="6.0" ry="6.0" x="200.0" y="133.76470588235293" width="52.0" height="52.0" class="key"/>
<use href="#tabler:arrow-right" xlink:href="#tabler:arrow-right" x="219.0" y="152.76470588235293" height="14" width="14.0" class="tap glyph tabler:arrow-right"/>
<rect rx="6.0" ry="6.0" x="256.0" y="143.6470588235294" width="52.0" height="52.0" class="key"/>
<use href="#mdi:cancel" xlink:href="#mdi:cancel" x="275.0" y="162.6470588235294" height="14" width="14.0" class="tap glyph mdi:cancel"/>
<rect rx="6.0" ry="6.0" x="32.0" y="235.88235294117646" width="52.0" height="52.0" class="key"/>
<use href="#mdi:cancel" xlink:href="#mdi:cancel" x="51.0" y="254.88235294117646" height="14" width="14.0" class="tap glyph mdi:cancel"/>
<rect rx="6.0" ry="6.0" x="88.0" y="179.8823529411765" width="52.0" height="52.0" class="key"/>
<text x="114.0" y="205.8823529411765" class="tap">
<tspan x="114.0" dy="-0.6em">PAGE</tspan><tspan x="114.0" dy="1.2em">DOWN</tspan></text>
<rect rx="6.0" ry="6.0" x="144.0" y="170.0" width="52.0" height="52.0" class="key"/>
<use href="#mdi:cancel" xlink:href="#mdi:cancel" x="163.0" y="189.0" height="14" width="14.0" class="tap glyph mdi:cancel"/>
<rect rx="6.0" ry="6.0" x="200.0" y="189.76470588235296" width="52.0" height="52.0" class="key"/>
<text x="226.0" y="215.76470588235296" class="tap">END</text>
<rect rx="6.0" ry="6.0" x="256.0" y="199.6470588235294" width="52.0" height="52.0" class="key"/>
<use href="#mdi:cancel" xlink:href="#mdi:cancel" x="275.0" y="218.6470588235294" height="14" width="14.0" class="tap glyph mdi:cancel"/>
<rect rx="6.0" ry="6.0" x="144.0" y="291.88235294117646" width="52.0" height="52.0" class="key"/>
<rect rx="6.0" ry="6.0" x="200.0" y="291.88235294117646" width="52.0" height="52.0" class="key"/>
<rect rx="6.0" ry="6.0" x="256.0" y="291.88235294117646" width="52.0" height="52.0" class="key"/>
<rect rx="6.0" ry="6.0" x="144.0" y="347.88235294117646" width="52.0" height="52.0" class="key"/>
<rect rx="6.0" ry="6.0" x="200.0" y="347.88235294117646" width="52.0" height="52.0" class="key"/>
<rect rx="6.0" ry="6.0" x="256.0" y="347.88235294117646" width="52.0" height="52.0" class="key"/>
<rect rx="6.0" ry="6.0" x="368.0" y="87.64705882352942" width="52.0" height="52.0" class="key"/>
<use href="#mdi:volume-high" xlink:href="#mdi:volume-high" x="387.0" y="106.64705882352942" height="14" width="14.0" class="tap glyph mdi:volume-high"/>
<rect rx="6.0" ry="6.0" x="424.0" y="77.76470588235294" width="52.0" height="52.0" class="key"/>
<use href="#mdi:web" xlink:href="#mdi:web" x="443.0" y="96.76470588235294" height="14" width="14.0" class="tap glyph mdi:web"/>
<text x="450.0" y="127.76470588235294" class="hold">russian</text>
<rect rx="6.0" ry="6.0" x="480.0" y="58.000000000000014" width="52.0" height="52.0" class="key"/>
<use href="#mdi:backspace-reverse-outline" xlink:href="#mdi:backspace-reverse-outline" x="499.0" y="77.00000000000001" height="14" width="14.0" class="tap glyph mdi:backspace-reverse-outline"/>
<rect rx="6.0" ry="6.0" x="536.0" y="67.88235294117648" width="52.0" height="52.0" class="key"/>
<use href="#tabler:space" xlink:href="#tabler:space" x="555.0" y="86.88235294117648" height="14" width="14.0" class="tap glyph tabler:space"/>
<rect rx="6.0" ry="6.0" x="592.0" y="123.88235294117649" width="52.0" height="52.0" class="key"/>
<use href="#mdi:cancel" xlink:href="#mdi:cancel" x="611.0" y="142.8823529411765" height="14" width="14.0" class="tap glyph mdi:cancel"/>
<rect rx="6.0" ry="6.0" x="368.0" y="143.6470588235294" width="52.0" height="52.0" class="key"/>
<use href="#mdi:volume-medium" xlink:href="#mdi:volume-medium" x="387.0" y="162.6470588235294" height="14" width="14.0" class="tap glyph mdi:volume-medium"/>
<rect rx="6.0" ry="6.0" x="424.0" y="133.76470588235293" width="52.0" height="52.0" class="key"/>
<text x="450.0" y="159.76470588235293" class="tap">RETURN</text>
<text x="450.0" y="183.76470588235293" class="hold" style="font-size: 70%">SFT-RETURN</text>
<text x="450.0" y="135.76470588235293" class="shifted" style="font-size: 70%">CMD-RETURN</text>
<rect rx="6.0" ry="6.0" x="480.0" y="114.0" width="52.0" height="52.0" class="key"/>
<use href="#mdi:backspace-outline" xlink:href="#mdi:backspace-outline" x="499.0" y="133.0" height="14" width="14.0" class="tap glyph mdi:backspace-outline"/>
<rect rx="6.0" ry="6.0" x="536.0" y="123.88235294117649" width="52.0" height="52.0" class="key"/>
<text x="562.0" y="149.8823529411765" class="tap">TAB</text>
<rect rx="6.0" ry="6.0" x="592.0" y="179.8823529411765" width="52.0" height="52.0" class="key"/>
<text x="618.0" y="205.8823529411765" class="tap">ESC</text>
<rect rx="6.0" ry="6.0" x="368.0" y="199.6470588235294" width="52.0" height="52.0" class="key"/>
<text x="394.0" y="225.6470588235294" class="tap">alfred</text>
<text x="394.0" y="249.6470588235294" class="hold" style="font-size: 70%">lockScreen</text>
<rect rx="6.0" ry="6.0" x="424.0" y="189.76470588235296" width="52.0" height="52.0" class="key"/>
<use href="#mdi:apple-keyboard-command" xlink:href="#mdi:apple-keyboard-command" x="443.0" y="208.76470588235296" height="14" width="14.0" class="tap glyph mdi:apple-keyboard-command"/>
<rect rx="6.0" ry="6.0" x="480.0" y="170.0" width="52.0" height="52.0" class="key"/>
<use href="#mdi:apple-keyboard-shift" xlink:href="#mdi:apple-keyboard-shift" x="499.0" y="189.0" height="14" width="14.0" class="tap glyph mdi:apple-keyboard-shift"/>
<rect rx="6.0" ry="6.0" x="536.0" y="179.8823529411765" width="52.0" height="52.0" class="key"/>
<use href="#mdi:apple-keyboard-control" xlink:href="#mdi:apple-keyboard-control" x="555.0" y="198.8823529411765" height="14" width="14.0" class="tap glyph mdi:apple-keyboard-control"/>
<rect rx="6.0" ry="6.0" x="592.0" y="235.88235294117646" width="52.0" height="52.0" class="key"/>
<use href="#mdi:apple-keyboard-option" xlink:href="#mdi:apple-keyboard-option" x="611.0" y="254.88235294117646" height="14" width="14.0" class="tap glyph mdi:apple-keyboard-option"/>
<rect rx="6.0" ry="6.0" x="368.0" y="291.88235294117646" width="52.0" height="52.0" class="key"/>
<rect rx="6.0" ry="6.0" x="424.0" y="291.88235294117646" width="52.0" height="52.0" class="key"/>
<rect rx="6.0" ry="6.0" x="480.0" y="291.88235294117646" width="52.0" height="52.0" class="key"/>
<rect rx="6.0" ry="6.0" x="368.0" y="347.88235294117646" width="52.0" height="52.0" class="key"/>
<rect rx="6.0" ry="6.0" x="424.0" y="347.88235294117646" width="52.0" height="52.0" class="key"/>
<rect rx="6.0" ry="6.0" x="480.0" y="347.88235294117646" width="52.0" height="52.0" class="key"/>
</g>
</svg>
