<svg width="676.0" height="457.88235294117646" viewBox="0 0 676.0 457.88235294117646" class="keymap" xmlns="http://www.w3.org/2000/svg" xmlns:xlink="http://www.w3.org/1999/xlink">
<defs>/* start glyphs */
<svg id="mdi:bluetooth">
<svg xmlns="http://www.w3.org/2000/svg" id="mdi-bluetooth" viewBox="0 0 24 24"><path d="M14.88,16.29L13,18.17V14.41M13,5.83L14.88,7.71L13,9.58M17.71,7.71L12,2H11V9.58L6.41,5L5,6.41L10.59,12L5,17.58L6.41,19L11,14.41V22H12L17.71,16.29L13.41,12L17.71,7.71Z" /></svg>
</svg>
<svg id="mdi:cancel">
<svg xmlns="http://www.w3.org/2000/svg" id="mdi-cancel" viewBox="0 0 24 24"><path d="M12 2C17.5 2 22 6.5 22 12S17.5 22 12 22 2 17.5 2 12 6.5 2 12 2M12 4C10.1 4 8.4 4.6 7.1 5.7L18.3 16.9C19.3 15.5 20 13.8 20 12C20 7.6 16.4 4 12 4M16.9 18.3L5.7 7.1C4.6 8.4 4 10.1 4 12C4 16.4 7.6 20 12 20C13.9 20 15.6 19.4 16.9 18.3Z" /></svg>
</svg>
<svg id="mdi:usb">
<svg xmlns="http://www.w3.org/2000/svg" id="mdi-usb" viewBox="0 0 24 24"><path d="M15,7V11H16V13H13V5H15L12,1L9,5H11V13H8V10.93C8.7,10.56 9.2,9.85 9.2,9C9.2,7.78 8.21,6.8 7,6.8C5.78,6.8 4.8,7.78 4.8,9C4.8,9.85 5.3,10.56 6,10.93V13A2,2 0 0,0 8,15H11V18.05C10.29,18.41 9.8,19.15 9.8,20A2.2,2.2 0 0,0 12,22.2A2.2,2.2 0 0,0 14.2,20C14.2,19.15 13.71,18.41 13,18.05V15H16A2,2 0 0,0 18,13V11H19V7H15Z" /></svg>
</svg>
</defs>/* end glyphs */
<style>/* inherit to force styles through use tags*/
svg path {
    fill: inherit;
}
/* font and background color specifications */
svg.keymap {
    font-family: SFMono-Regular,Consolas,Liberation Mono,Menlo,monospace;
    font-size: 12px;
    font-kerning: normal;
    text-rendering: optimizeLegibility;
    fill: #24292e;
}

/* default key styling */
rect.key {
    fill: #f6f8fa;
    stroke: #c9cccf;
    stroke-width: 1;
}

/* color accent for combo boxes */
rect.combo {
    fill: #cdf;
}

/* color accent for held keys */
rect.held, rect.combo.held {
    fill: #fdd;
}

/* color accent for ghost (optional) keys */
rect.ghost, rect.combo.ghost {
    fill: #ddd;
}

text {
    text-anchor: middle;
    dominant-baseline: middle;
}

/* styling for layer labels */
text.label {
    font-weight: bold;
    text-anchor: start;
    stroke: white;
    stroke-width: 2;
    paint-order: stroke;
}

/* styling for combo tap, and key hold/shifted label text */
text.combo, text.hold, text.shifted {
    font-size: 10px;
}

text.hold {
    text-anchor: middle;
    dominant-baseline: auto;
}

text.shifted {
    text-anchor: middle;
    dominant-baseline: hanging;
}

/* styling for hold/shifted label text in combo box */
text.combo.hold, text.combo.shifted {
    font-size: 7px;
}

/* lighter symbol for transparent keys */
text.trans {
    fill: #7b7e81;
}

/* styling for combo dendrons */
path.combo {
    stroke-width: 1;
    stroke: gray;
    fill: none;
}

/* Start Tabler Icons Cleanup */
/* cannot use height/width with glyphs */
.icon-tabler > path {
    fill: inherit;
    stroke: inherit;
}
/* hide tabler's default box */
.icon-tabler > path[stroke="none"][fill="none"] {
    visibility: collapse;
}
/* End Tabler Icons Cleanup */
</style>
<g class="layer-config">
<text x="30.0" y="28.0" class="label">config:</text>
<rect rx="6.0" ry="6.0" x="32.0" y="123.88235294117646" width="52.0" height="52.0" class="key"/>
<text x="58.0" y="149.88235294117646" class="tap" style="font-size: 70%">bootloader</text>
<rect rx="6.0" ry="6.0" x="88.0" y="67.88235294117646" width="52.0" height="52.0" class="key"/>
<text x="114.0" y="93.88235294117646" class="tap">reset</text>
<text x="114.0" y="117.88235294117646" class="hold" style="font-size: 88%">keyboard</text>
<rect rx="6.0" ry="6.0" x="144.0" y="58.0" width="52.0" height="52.0" class="key"/>
<use href="#mdi:bluetooth" xlink:href="#mdi:bluetooth" x="163.0" y="77.0" height="14" width="14.0" class="tap glyph mdi:bluetooth"/>
<text x="170.0" y="108.0" class="hold" style="font-size: 78%">BLE clear</text>
<rect rx="6.0" ry="6.0" x="200.0" y="77.76470588235294" width="52.0" height="52.0" class="key"/>
<text x="226.0" y="103.76470588235294" class="tap">1</text>
<rect rx="6.0" ry="6.0" x="256.0" y="87.64705882352942" width="52.0" height="52.0" class="key"/>
<text x="282.0" y="113.64705882352942" class="tap">
<tspan x="282.0" dy="-0.6em">&amp;tog</tspan><tspan x="282.0" dy="1.2em">config</tspan></text>
<rect rx="6.0" ry="6.0" x="32.0" y="179.8823529411765" width="52.0" height="52.0" class="key"/>
<use href="#mdi:bluetooth" xlink:href="#mdi:bluetooth" x="51.0" y="198.8823529411765" height="14" width="14.0" class="tap glyph mdi:bluetooth"/>
<text x="58.0" y="229.8823529411765" class="hold">BLE 1</text>
<rect rx="6.0" ry="6.0" x="88.0" y="123.88235294117646" width="52.0" height="52.0" class="key"/>
<use href="#mdi:bluetooth" xlink:href="#mdi:bluetooth" x="107.0" y="142.88235294117646" height="14" width="14.0" class="tap glyph mdi:bluetooth"/>
<text x="114.0" y="173.88235294117646" class="hold">BLE 2</text>
<rect rx="6.0" ry="6.0" x="144.0" y="114.0" width="52.0" height="52.0" class="key"/>
<use href="#mdi:bluetooth" xlink:href="#mdi:bluetooth" x="163.0" y="133.0" height="14" width="14.0" class="tap glyph mdi:bluetooth"/>
<text x="170.0" y="164.0" class="hold">BLE 3</text>
<rect rx="6.0" ry="6.0" x="200.0" y="133.76470588235293" width="52.0" height="52.0" class="key"/>
<use href="#mdi:bluetooth" xlink:href="#mdi:bluetooth" x="219.0" y="152.76470588235293" height="14" width="14.0" class="tap glyph mdi:bluetooth"/>
<text x="226.0" y="183.76470588235293" class="hold">BLE 4</text>
<rect rx="6.0" ry="6.0" x="256.0" y="143.6470588235294" width="52.0" height="52.0" class="key"/>
<use href="#mdi:bluetooth" xlink:href="#mdi:bluetooth" x="275.0" y="162.6470588235294" height="14" width="14.0" class="tap glyph mdi:bluetooth"/>
<text x="282.0" y="193.6470588235294" class="hold">BLE 5</text>
<rect rx="6.0" ry="6.0" x="32.0" y="235.88235294117646" width="52.0" height="52.0" class="key"/>
<use href="#mdi:bluetooth" xlink:href="#mdi:bluetooth" x="51.0" y="254.88235294117646" height="14" width="14.0" class="tap glyph mdi:bluetooth"/>
<text x="58.0" y="285.88235294117646" class="hold" style="font-size: 88%">BLE prev</text>
<rect rx="6.0" ry="6.0" x="88.0" y="179.8823529411765" width="52.0" height="52.0" class="key"/>
<use href="#mdi:bluetooth" xlink:href="#mdi:bluetooth" x="107.0" y="198.8823529411765" height="14" width="14.0" class="tap glyph mdi:bluetooth"/>
<text x="114.0" y="229.8823529411765" class="hold" style="font-size: 88%">BLE next</text>
<rect rx="6.0" ry="6.0" x="144.0" y="170.0" width="52.0" height="52.0" class="key"/>
<use href="#mdi:bluetooth" xlink:href="#mdi:bluetooth" x="163.0" y="189.0" height="14" width="14.0" class="tap glyph mdi:bluetooth"/>
<text x="170.0" y="220.0" class="hold" style="font-size: 70%">select BLE</text>
<rect rx="6.0" ry="6.0" x="200.0" y="189.76470588235296" width="52.0" height="52.0" class="key"/>
<text x="226.0" y="215.76470588235296" class="tap">1</text>
<rect rx="6.0" ry="6.0" x="256.0" y="199.6470588235294" width="52.0" height="52.0" class="key"/>
<use href="#mdi:usb" xlink:href="#mdi:usb" x="275.0" y="218.6470588235294" height="14" width="14.0" class="tap glyph mdi:usb"/>
<text x="282.0" y="249.6470588235294" class="hold" style="font-size: 70%">select USB</text>
<rect rx="6.0" ry="6.0" x="144.0" y="291.88235294117646" width="52.0" height="52.0" class="key"/>
<use href="#mdi:cancel" xlink:href="#mdi:cancel" x="163.0" y="310.88235294117646" height="14" width="14.0" class="tap glyph mdi:cancel"/>
<rect rx="6.0" ry="6.0" x="200.0" y="291.88235294117646" width="52.0" height="52.0" class="key"/>
<use href="#mdi:cancel" xlink:href="#mdi:cancel" x="219.0" y="310.88235294117646" height="14" width="14.0" class="tap glyph mdi:cancel"/>
<rect rx="6.0" ry="6.0" x="256.0" y="291.88235294117646" width="52.0" height="52.0" class="key"/>
<use href="#mdi:cancel" xlink:href="#mdi:cancel" x="275.0" y="310.88235294117646" height="14" width="14.0" class="tap glyph mdi:cancel"/>
<rect rx="6.0" ry="6.0" x="144.0" y="347.88235294117646" width="52.0" height="52.0" class="key"/>
<use href="#mdi:cancel" xlink:href="#mdi:cancel" x="163.0" y="366.88235294117646" height="14" width="14.0" class="tap glyph mdi:cancel"/>
<rect rx="6.0" ry="6.0" x="200.0" y="347.88235294117646" width="52.0" height="52.0" class="key"/>
<use href="#mdi:cancel" xlink:href="#mdi:cancel" x="219.0" y="366.88235294117646" height="14" width="14.0" class="tap glyph mdi:cancel"/>
<rect rx="6.0" ry="6.0" x="256.0" y="347.88235294117646" width="52.0" height="52.0" class="key"/>
<use href="#mdi:cancel" xlink:href="#mdi:cancel" x="275.0" y="366.88235294117646" height="14" width="14.0" class="tap glyph mdi:cancel"/>
<rect rx="6.0" ry="6.0" x="368.0" y="87.64705882352942" width="52.0" height="52.0" class="key"/>
<text x="394.0" y="113.64705882352942" class="tap">
<tspan x="394.0" dy="-0.6em">&amp;tog</tspan><tspan x="394.0" dy="1.2em">config</tspan></text>
<rect rx="6.0" ry="6.0" x="424.0" y="77.76470588235294" width="52.0" height="52.0" class="key"/>
<text x="450.0" y="103.76470588235294" class="tap">1</text>
<rect rx="6.0" ry="6.0" x="480.0" y="58.000000000000014" width="52.0" height="52.0" class="key"/>
<use href="#mdi:cancel" xlink:href="#mdi:cancel" x="499.0" y="77.00000000000001" height="14" width="14.0" class="tap glyph mdi:cancel"/>
<rect rx="6.0" ry="6.0" x="536.0" y="67.88235294117648" width="52.0" height="52.0" class="key"/>
<text x="562.0" y="93.88235294117648" class="tap">reset</text>
<text x="562.0" y="117.88235294117648" class="hold" style="font-size: 88%">keyboard</text>
<rect rx="6.0" ry="6.0" x="592.0" y="123.88235294117649" width="52.0" height="52.0" class="key"/>
<text x="618.0" y="149.8823529411765" class="tap" style="font-size: 70%">bootloader</text>
<rect rx="6.0" ry="6.0" x="368.0" y="143.6470588235294" width="52.0" height="52.0" class="key"/>
<use href="#mdi:cancel" xlink:href="#mdi:cancel" x="387.0" y="162.6470588235294" height="14" width="14.0" class="tap glyph mdi:cancel"/>
<rect rx="6.0" ry="6.0" x="424.0" y="133.76470588235293" width="52.0" height="52.0" class="key"/>
<use href="#mdi:cancel" xlink:href="#mdi:cancel" x="443.0" y="152.76470588235293" height="14" width="14.0" class="tap glyph mdi:cancel"/>
<rect rx="6.0" ry="6.0" x="480.0" y="114.0" width="52.0" height="52.0" class="key"/>
<use href="#mdi:cancel" xlink:href="#mdi:cancel" x="499.0" y="133.0" height="14" width="14.0" class="tap glyph mdi:cancel"/>
<rect rx="6.0" ry="6.0" x="536.0" y="123.88235294117649" width="52.0" height="52.0" class="key"/>
<use href="#mdi:cancel" xlink:href="#mdi:cancel" x="555.0" y="142.8823529411765" height="14" width="14.0" class="tap glyph mdi:cancel"/>
<rect rx="6.0" ry="6.0" x="592.0" y="179.8823529411765" width="52.0" height="52.0" class="key"/>
<use href="#mdi:cancel" xlink:href="#mdi:cancel" x="611.0" y="198.8823529411765" height="14" width="14.0" class="tap glyph mdi:cancel"/>
<rect rx="6.0" ry="6.0" x="368.0" y="199.6470588235294" width="52.0" height="52.0" class="key"/>
<use href="#mdi:cancel" xlink:href="#mdi:cancel" x="387.0" y="218.6470588235294" height="14" width="14.0" class="tap glyph mdi:cancel"/>
<rect rx="6.0" ry="6.0" x="424.0" y="189.76470588235296" width="52.0" height="52.0" class="key"/>
<text x="450.0" y="215.76470588235296" class="tap">1</text>
<rect rx="6.0" ry="6.0" x="480.0" y="170.0" width="52.0" height="52.0" class="key"/>
<use href="#mdi:cancel" xlink:href="#mdi:cancel" x="499.0" y="189.0" height="14" width="14.0" class="tap glyph mdi:cancel"/>
<rect rx="6.0" ry="6.0" x="536.0" y="179.8823529411765" width="52.0" height="52.0" class="key"/>
<use href="#mdi:cancel" xlink:href="#mdi:cancel" x="555.0" y="198.8823529411765" height="14" width="14.0" class="tap glyph mdi:cancel"/>
<rect rx="6.0" ry="6.0" x="592.0" y="235.88235294117646" width="52.0" height="52.0" class="key"/>
<use href="#mdi:cancel" xlink:href="#mdi:cancel" x="611.0" y="254.88235294117646" height="14" width="14.0" class="tap glyph mdi:cancel"/>
<rect rx="6.0" ry="6.0" x="368.0" y="291.88235294117646" width="52.0" height="52.0" class="key"/>
<use href="#mdi:cancel" xlink:href="#mdi:cancel" x="387.0" y="310.88235294117646" height="14" width="14.0" class="tap glyph mdi:cancel"/>
<rect rx="6.0" ry="6.0" x="424.0" y="291.88235294117646" width="52.0" height="52.0" class="key"/>
<use href="#mdi:cancel" xlink:href="#mdi:cancel" x="443.0" y="310.88235294117646" height="14" width="14.0" class="tap glyph mdi:cancel"/>
<rect rx="6.0" ry="6.0" x="480.0" y="291.88235294117646" width="52.0" height="52.0" class="key"/>
<use href="#mdi:cancel" xlink:href="#mdi:cancel" x="499.0" y="310.88235294117646" height="14" width="14.0" class="tap glyph mdi:cancel"/>
<rect rx="6.0" ry="6.0" x="368.0" y="347.88235294117646" width="52.0" height="52.0" class="key"/>
<use href="#mdi:cancel" xlink:href="#mdi:cancel" x="387.0" y="366.88235294117646" height="14" width="14.0" class="tap glyph mdi:cancel"/>
<rect rx="6.0" ry="6.0" x="424.0" y="347.88235294117646" width="52.0" height="52.0" class="key"/>
<use href="#mdi:cancel" xlink:href="#mdi:cancel" x="443.0" y="366.88235294117646" height="14" width="14.0" class="tap glyph mdi:cancel"/>
<rect rx="6.0" ry="6.0" x="480.0" y="347.88235294117646" width="52.0" height="52.0" class="key"/>
<use href="#mdi:cancel" xlink:href="#mdi:cancel" x="499.0" y="366.88235294117646" height="14" width="14.0" class="tap glyph mdi:cancel"/>
</g>
</svg>
