<svg width="676.0" height="457.88235294117646" viewBox="0 0 676.0 457.88235294117646" class="keymap" xmlns="http://www.w3.org/2000/svg" xmlns:xlink="http://www.w3.org/1999/xlink">
<defs>/* start glyphs */
<svg id="tabler:space">
<svg xmlns="http://www.w3.org/2000/svg" class="icon icon-tabler icon-tabler-space" viewBox="0 0 24 24" stroke-width="2" stroke="currentColor" fill="none" stroke-linecap="round" stroke-linejoin="round">
  <path stroke="none" d="M0 0h24v24H0z" fill="none"/>
  <path d="M4 10v3a1 1 0 0 0 1 1h14a1 1 0 0 0 1 -1v-3" />
</svg>



</svg>
<svg id="tabler:box-multiple">
<svg xmlns="http://www.w3.org/2000/svg" class="icon icon-tabler icon-tabler-box-multiple" viewBox="0 0 24 24" stroke-width="2" stroke="currentColor" fill="none" stroke-linecap="round" stroke-linejoin="round">
  <path stroke="none" d="M0 0h24v24H0z" fill="none"/>
  <path d="M7 3m0 2a2 2 0 0 1 2 -2h10a2 2 0 0 1 2 2v10a2 2 0 0 1 -2 2h-10a2 2 0 0 1 -2 -2z" />
  <path d="M17 17v2a2 2 0 0 1 -2 2h-10a2 2 0 0 1 -2 -2v-10a2 2 0 0 1 2 -2h2" />
</svg>



</svg>
<svg id="mdi:apple-keyboard-control">
<svg xmlns="http://www.w3.org/2000/svg" id="mdi-apple-keyboard-control" viewBox="0 0 24 24"><path d="M19.78,11.78L18.36,13.19L12,6.83L5.64,13.19L4.22,11.78L12,4L19.78,11.78Z" /></svg>
</svg>
<svg id="mdi:apple-keyboard-shift">
<svg xmlns="http://www.w3.org/2000/svg" id="mdi-apple-keyboard-shift" viewBox="0 0 24 24"><path d="M15,18V12H17.17L12,6.83L6.83,12H9V18H15M12,4L22,14H17V20H7V14H2L12,4Z" /></svg>
</svg>
<svg id="mdi:mirror-rectangle">
<svg xmlns="http://www.w3.org/2000/svg" id="mdi-mirror-rectangle" viewBox="0 0 24 24"><path d="M8.29 10.28L11.53 7.03L12.59 8.09L9.35 11.34L8.29 10.28M8.7 14.61L14.36 8.95L15.42 10L9.76 15.67L8.7 14.61M18 3V21H6V3H18M20 1H4V23H20V1Z" /></svg>
</svg>
<svg id="mdi:cancel">
<svg xmlns="http://www.w3.org/2000/svg" id="mdi-cancel" viewBox="0 0 24 24"><path d="M12 2C17.5 2 22 6.5 22 12S17.5 22 12 22 2 17.5 2 12 6.5 2 12 2M12 4C10.1 4 8.4 4.6 7.1 5.7L18.3 16.9C19.3 15.5 20 13.8 20 12C20 7.6 16.4 4 12 4M16.9 18.3L5.7 7.1C4.6 8.4 4 10.1 4 12C4 16.4 7.6 20 12 20C13.9 20 15.6 19.4 16.9 18.3Z" /></svg>
</svg>
</defs>/* end glyphs */
<style>/* inherit to force styles through use tags*/
svg path {
    fill: inherit;
}
/* font and background color specifications */
svg.keymap {
    font-family: SFMono-Regular,Consolas,Liberation Mono,Menlo,monospace;
    font-size: 12px;
    font-kerning: normal;
    text-rendering: optimizeLegibility;
    fill: #24292e;
}

/* default key styling */
rect.key {
    fill: #f6f8fa;
    stroke: #c9cccf;
    stroke-width: 1;
}

/* color accent for combo boxes */
rect.combo {
    fill: #cdf;
}

/* color accent for held keys */
rect.held, rect.combo.held {
    fill: #fdd;
}

/* color accent for ghost (optional) keys */
rect.ghost, rect.combo.ghost {
    fill: #ddd;
}

text {
    text-anchor: middle;
    dominant-baseline: middle;
}

/* styling for layer labels */
text.label {
    font-weight: bold;
    text-anchor: start;
    stroke: white;
    stroke-width: 2;
    paint-order: stroke;
}

/* styling for combo tap, and key hold/shifted label text */
text.combo, text.hold, text.shifted {
    font-size: 10px;
}

text.hold {
    text-anchor: middle;
    dominant-baseline: auto;
}

text.shifted {
    text-anchor: middle;
    dominant-baseline: hanging;
}

/* styling for hold/shifted label text in combo box */
text.combo.hold, text.combo.shifted {
    font-size: 7px;
}

/* lighter symbol for transparent keys */
text.trans {
    fill: #7b7e81;
}

/* styling for combo dendrons */
path.combo {
    stroke-width: 1;
    stroke: gray;
    fill: none;
}

/* Start Tabler Icons Cleanup */
/* cannot use height/width with glyphs */
.icon-tabler > path {
    fill: inherit;
    stroke: inherit;
}
/* hide tabler's default box */
.icon-tabler > path[stroke="none"][fill="none"] {
    visibility: collapse;
}
/* End Tabler Icons Cleanup */
</style>
<g class="layer-default">
<text x="30.0" y="28.0" class="label">default:</text>
<rect rx="6.0" ry="6.0" x="32.0" y="123.88235294117646" width="52.0" height="52.0" class="key"/>
<text x="58.0" y="149.88235294117646" class="tap">Q</text>
<text x="58.0" y="173.88235294117646" class="hold" style="font-size: 78%">CMD-SLASH</text>
<text x="58.0" y="125.88235294117646" class="shifted" style="font-size: 78%">ALT-CMD-Q</text>
<rect rx="6.0" ry="6.0" x="88.0" y="67.88235294117646" width="52.0" height="52.0" class="key"/>
<text x="114.0" y="93.88235294117646" class="tap">W</text>
<text x="114.0" y="117.88235294117646" class="hold">CMD-W</text>
<text x="114.0" y="69.88235294117646" class="shifted">CMD-Q</text>
<rect rx="6.0" ry="6.0" x="144.0" y="58.0" width="52.0" height="52.0" class="key"/>
<text x="170.0" y="84.0" class="tap">F</text>
<text x="170.0" y="108.0" class="hold">CMD-F</text>
<text x="170.0" y="60.0" class="shifted" style="font-size: 78%">ALT-CMD-F</text>
<rect rx="6.0" ry="6.0" x="200.0" y="77.76470588235294" width="52.0" height="52.0" class="key"/>
<text x="226.0" y="103.76470588235294" class="tap">P</text>
<text x="226.0" y="127.76470588235294" class="hold">CMD-P</text>
<text x="226.0" y="79.76470588235294" class="shifted" style="font-size: 78%">SFT-CMD-P</text>
<rect rx="6.0" ry="6.0" x="256.0" y="87.64705882352942" width="52.0" height="52.0" class="key"/>
<text x="282.0" y="113.64705882352942" class="tap">&amp;none</text>
<text x="282.0" y="137.64705882352942" class="hold" style="font-size: 64%">&amp;tog config</text>
<rect rx="6.0" ry="6.0" x="32.0" y="179.8823529411765" width="52.0" height="52.0" class="key"/>
<text x="58.0" y="205.8823529411765" class="tap">A</text>
<text x="58.0" y="229.8823529411765" class="hold">CMD-A</text>
<rect rx="6.0" ry="6.0" x="88.0" y="123.88235294117646" width="52.0" height="52.0" class="key"/>
<text x="114.0" y="149.88235294117646" class="tap">R</text>
<text x="114.0" y="173.88235294117646" class="hold">CMD-R</text>
<rect rx="6.0" ry="6.0" x="144.0" y="114.0" width="52.0" height="52.0" class="key"/>
<text x="170.0" y="140.0" class="tap">S</text>
<text x="170.0" y="164.0" class="hold">CMD-S</text>
<rect rx="6.0" ry="6.0" x="200.0" y="133.76470588235293" width="52.0" height="52.0" class="key"/>
<text x="226.0" y="159.76470588235293" class="tap">T</text>
<text x="226.0" y="183.76470588235293" class="hold">CMD-T</text>
<rect rx="6.0" ry="6.0" x="256.0" y="143.6470588235294" width="52.0" height="52.0" class="key"/>
<text x="282.0" y="169.6470588235294" class="tap">G</text>
<text x="282.0" y="193.6470588235294" class="hold">CMD-G</text>
<text x="282.0" y="145.6470588235294" class="shifted" style="font-size: 78%">CMD-SFT-G</text>
<rect rx="6.0" ry="6.0" x="32.0" y="235.88235294117646" width="52.0" height="52.0" class="key"/>
<text x="58.0" y="261.88235294117646" class="tap">Z</text>
<rect rx="6.0" ry="6.0" x="88.0" y="179.8823529411765" width="52.0" height="52.0" class="key"/>
<text x="114.0" y="205.8823529411765" class="tap">X</text>
<rect rx="6.0" ry="6.0" x="144.0" y="170.0" width="52.0" height="52.0" class="key"/>
<text x="170.0" y="196.0" class="tap">C</text>
<rect rx="6.0" ry="6.0" x="200.0" y="189.76470588235296" width="52.0" height="52.0" class="key"/>
<text x="226.0" y="215.76470588235296" class="tap">D</text>
<text x="226.0" y="239.76470588235296" class="hold">CMD-D</text>
<rect rx="6.0" ry="6.0" x="256.0" y="199.6470588235294" width="52.0" height="52.0" class="key"/>
<text x="282.0" y="225.6470588235294" class="tap">B</text>
<text x="282.0" y="249.6470588235294" class="hold">CMD-B</text>
<text x="282.0" y="201.6470588235294" class="shifted" style="font-size: 78%">CMD-SFT-B</text>
<rect rx="6.0" ry="6.0" x="144.0" y="291.88235294117646" width="52.0" height="52.0" class="key"/>
<use href="#tabler:box-multiple" xlink:href="#tabler:box-multiple" x="163.0" y="310.88235294117646" height="14" width="14.0" class="tap glyph tabler:box-multiple"/>
<text x="170.0" y="341.88235294117646" class="hold">windows</text>
<rect rx="6.0" ry="6.0" x="200.0" y="291.88235294117646" width="52.0" height="52.0" class="key"/>
<use href="#tabler:box-multiple" xlink:href="#tabler:box-multiple" x="219.0" y="310.88235294117646" height="14" width="14.0" class="tap glyph tabler:box-multiple"/>
<text x="226.0" y="341.88235294117646" class="hold">arrows</text>
<rect rx="6.0" ry="6.0" x="256.0" y="291.88235294117646" width="52.0" height="52.0" class="key"/>
<use href="#tabler:box-multiple" xlink:href="#tabler:box-multiple" x="275.0" y="310.88235294117646" height="14" width="14.0" class="tap glyph tabler:box-multiple"/>
<text x="282.0" y="341.88235294117646" class="hold">numbers</text>
<rect rx="6.0" ry="6.0" x="144.0" y="347.88235294117646" width="52.0" height="52.0" class="key"/>
<use href="#tabler:box-multiple" xlink:href="#tabler:box-multiple" x="163.0" y="366.88235294117646" height="14" width="14.0" class="tap glyph tabler:box-multiple"/>
<text x="170.0" y="397.88235294117646" class="hold">symbols</text>
<rect rx="6.0" ry="6.0" x="200.0" y="347.88235294117646" width="52.0" height="52.0" class="key"/>
<use href="#mdi:mirror-rectangle" xlink:href="#mdi:mirror-rectangle" x="219.0" y="366.88235294117646" height="14" width="14.0" class="tap glyph mdi:mirror-rectangle"/>
<rect rx="6.0" ry="6.0" x="256.0" y="347.88235294117646" width="52.0" height="52.0" class="key"/>
<use href="#mdi:apple-keyboard-shift" xlink:href="#mdi:apple-keyboard-shift" x="275.0" y="366.88235294117646" height="14" width="14.0" class="tap glyph mdi:apple-keyboard-shift"/>
<rect rx="6.0" ry="6.0" x="368.0" y="87.64705882352942" width="52.0" height="52.0" class="key"/>
<text x="394.0" y="113.64705882352942" class="tap">&amp;none</text>
<text x="394.0" y="137.64705882352942" class="hold" style="font-size: 64%">&amp;tog config</text>
<rect rx="6.0" ry="6.0" x="424.0" y="77.76470588235294" width="52.0" height="52.0" class="key"/>
<text x="450.0" y="103.76470588235294" class="tap">L</text>
<text x="450.0" y="127.76470588235294" class="hold">CMD-L</text>
<rect rx="6.0" ry="6.0" x="480.0" y="58.000000000000014" width="52.0" height="52.0" class="key"/>
<text x="506.0" y="84.00000000000001" class="tap">U</text>
<text x="506.0" y="108.00000000000001" class="hold">CMD-U</text>
<rect rx="6.0" ry="6.0" x="536.0" y="67.88235294117648" width="52.0" height="52.0" class="key"/>
<text x="562.0" y="93.88235294117648" class="tap">Y</text>
<text x="562.0" y="117.88235294117648" class="hold">CMD-Y</text>
<rect rx="6.0" ry="6.0" x="592.0" y="123.88235294117649" width="52.0" height="52.0" class="key"/>
<text x="618.0" y="149.8823529411765" class="tap">1</text>
<text x="618.0" y="173.8823529411765" class="hold">2</text>
<text x="618.0" y="125.88235294117649" class="shifted">3</text>
<rect rx="6.0" ry="6.0" x="368.0" y="143.6470588235294" width="52.0" height="52.0" class="key"/>
<text x="394.0" y="169.6470588235294" class="tap">M</text>
<text x="394.0" y="193.6470588235294" class="hold">CMD-M</text>
<rect rx="6.0" ry="6.0" x="424.0" y="133.76470588235293" width="52.0" height="52.0" class="key"/>
<text x="450.0" y="159.76470588235293" class="tap">N</text>
<text x="450.0" y="183.76470588235293" class="hold">CMD-N</text>
<text x="450.0" y="135.76470588235293" class="shifted" style="font-size: 78%">CMD-SFT-N</text>
<rect rx="6.0" ry="6.0" x="480.0" y="114.0" width="52.0" height="52.0" class="key"/>
<text x="506.0" y="140.0" class="tap">E</text>
<text x="506.0" y="164.0" class="hold">CMD-E</text>
<text x="506.0" y="116.0" class="shifted" style="font-size: 78%">SFT-CMD-E</text>
<rect rx="6.0" ry="6.0" x="536.0" y="123.88235294117649" width="52.0" height="52.0" class="key"/>
<text x="562.0" y="149.8823529411765" class="tap">I</text>
<text x="562.0" y="173.8823529411765" class="hold">CMD-I</text>
<text x="562.0" y="125.88235294117649" class="shifted" style="font-size: 78%">CMD-ALT-I</text>
<rect rx="6.0" ry="6.0" x="592.0" y="179.8823529411765" width="52.0" height="52.0" class="key"/>
<text x="618.0" y="205.8823529411765" class="tap">O</text>
<text x="618.0" y="229.8823529411765" class="hold">CMD-O</text>
<rect rx="6.0" ry="6.0" x="368.0" y="199.6470588235294" width="52.0" height="52.0" class="key"/>
<text x="394.0" y="225.6470588235294" class="tap">J</text>
<text x="394.0" y="249.6470588235294" class="hold">CMD-J</text>
<rect rx="6.0" ry="6.0" x="424.0" y="189.76470588235296" width="52.0" height="52.0" class="key"/>
<text x="450.0" y="215.76470588235296" class="tap">H</text>
<text x="450.0" y="239.76470588235296" class="hold">CMD-H</text>
<rect rx="6.0" ry="6.0" x="480.0" y="170.0" width="52.0" height="52.0" class="key"/>
<text x="506.0" y="196.0" class="tap">V</text>
<text x="506.0" y="220.0" class="hold">CMD-V</text>
<rect rx="6.0" ry="6.0" x="536.0" y="179.8823529411765" width="52.0" height="52.0" class="key"/>
<text x="562.0" y="205.8823529411765" class="tap">K</text>
<text x="562.0" y="229.8823529411765" class="hold">CMD-K</text>
<rect rx="6.0" ry="6.0" x="592.0" y="235.88235294117646" width="52.0" height="52.0" class="key"/>
<use href="#mdi:cancel" xlink:href="#mdi:cancel" x="611.0" y="254.88235294117646" height="14" width="14.0" class="tap glyph mdi:cancel"/>
<rect rx="6.0" ry="6.0" x="368.0" y="291.88235294117646" width="52.0" height="52.0" class="key"/>
<use href="#tabler:space" xlink:href="#tabler:space" x="387.0" y="310.88235294117646" height="14" width="14.0" class="tap glyph tabler:space"/>
<rect rx="6.0" ry="6.0" x="424.0" y="291.88235294117646" width="52.0" height="52.0" class="key"/>
<use href="#tabler:box-multiple" xlink:href="#tabler:box-multiple" x="443.0" y="310.88235294117646" height="14" width="14.0" class="tap glyph tabler:box-multiple"/>
<text x="450.0" y="341.88235294117646" class="hold">symbols</text>
<rect rx="6.0" ry="6.0" x="480.0" y="291.88235294117646" width="52.0" height="52.0" class="key"/>
<use href="#mdi:apple-keyboard-shift" xlink:href="#mdi:apple-keyboard-shift" x="499.0" y="310.88235294117646" height="14" width="14.0" class="tap glyph mdi:apple-keyboard-shift"/>
<rect rx="6.0" ry="6.0" x="368.0" y="347.88235294117646" width="52.0" height="52.0" class="key"/>
<rect rx="6.0" ry="6.0" x="424.0" y="347.88235294117646" width="52.0" height="52.0" class="key"/>
<rect rx="6.0" ry="6.0" x="480.0" y="347.88235294117646" width="52.0" height="52.0" class="key"/>
<rect rx="6.0" ry="6.0" x="212.0" y="174.76470588235296" width="28.0" height="26.0" class="combo"/>
<text x="226.0" y="187.76470588235296" class="combo tap">paste</text>
<text x="226.0" y="198.76470588235296" class="combo hold" style="font-size: 70%">pasteMulti</text>
<rect rx="6.0" ry="6.0" x="156.0" y="155.0" width="28.0" height="26.0" class="combo"/>
<text x="170.0" y="168.0" class="combo tap">copy</text>
<rect rx="6.0" ry="6.0" x="100.0" y="164.8823529411765" width="28.0" height="26.0" class="combo"/>
<text x="114.0" y="177.8823529411765" class="combo tap">cut</text>
<rect rx="6.0" ry="6.0" x="464.0" y="304.88235294117646" width="28.0" height="26.0" class="combo"/>
<text x="478.0" y="317.88235294117646" class="combo tap" style="font-size: 70%">deleteWord</text>
<path d="M338.0,113.64705882352942 l-37.33333333333333,0.0" class="combo"/>
<path d="M338.0,113.64705882352942 l37.33333333333333,0.0" class="combo"/>
<rect rx="6.0" ry="6.0" x="324.0" y="100.64705882352942" width="28.0" height="26.0" class="combo"/>
<text x="338.0" y="113.64705882352942" class="combo tap">
<tspan x="338.0" dy="-0.6em">&amp;tog</tspan><tspan x="338.0" dy="1.2em">qwerty</tspan></text>
<rect rx="6.0" ry="6.0" x="240.0" y="304.88235294117646" width="28.0" height="26.0" class="combo"/>
<use href="#mdi:apple-keyboard-control" xlink:href="#mdi:apple-keyboard-control" x="247.0" y="310.88235294117646" height="14" width="14.0" class="combo tap glyph mdi:apple-keyboard-control"/>
<rect rx="6.0" ry="6.0" x="184.0" y="304.88235294117646" width="28.0" height="26.0" class="combo"/>
<use href="#tabler:box-multiple" xlink:href="#tabler:box-multiple" x="191.0" y="310.88235294117646" height="14" width="14.0" class="combo tap glyph tabler:box-multiple"/>
<text x="198.0" y="328.88235294117646" class="combo hold" style="font-size: 88%">windows2</text>
<rect rx="6.0" ry="6.0" x="184.0" y="360.88235294117646" width="28.0" height="26.0" class="combo"/>
<use href="#mdi:mirror-rectangle" xlink:href="#mdi:mirror-rectangle" x="191.0" y="366.88235294117646" height="14" width="14.0" class="combo tap glyph mdi:mirror-rectangle"/>
<rect rx="6.0" ry="6.0" x="212.0" y="332.88235294117646" width="28.0" height="26.0" class="combo"/>
<use href="#mdi:mirror-rectangle" xlink:href="#mdi:mirror-rectangle" x="219.0" y="338.88235294117646" height="14" width="14.0" class="combo tap glyph mdi:mirror-rectangle"/>
<rect rx="6.0" ry="6.0" x="240.0" y="360.88235294117646" width="28.0" height="26.0" class="combo"/>
<use href="#mdi:mirror-rectangle" xlink:href="#mdi:mirror-rectangle" x="247.0" y="366.88235294117646" height="14" width="14.0" class="combo tap glyph mdi:mirror-rectangle"/>
</g>
</svg>
